<svg width="1920" height="1920" xmlns="http://www.w3.org/2000/svg"><path d="M279 1779h-7l-3-1-4-2-3-1-3-2-7-5-7-5-2-4-3-3-1-4-1-4v-6l1-6 8-15 8-14 5-11 6-10 5-9 5-8 11-16 10-17 4-6 3-6 8-12 7-11 5-8 5-7 7-12 8-12 11-19 12-19 3-5 4-5 15-26 16-25 4-7 4-6 4-6 3-5 8-13 7-12 6-10 7-9 10-18 11-17 2-3 2-2 8-14 8-13 4-6 3-6 5-8 5-8 6-9 5-8 3-5 4-5 6-11 6-10 5-8 5-9 3-2 2-3 7-12 7-11 5-9 5-9 7-10 6-10 5-8 5-8 13-21 13-21 5-7 5-8v-1h-74l-3-1-2-1-1-3v-2l1-11 2-11 7-39 7-38 5-29 5-29 4-23 4-23 5-31 6-30 5-29 5-29 6-34 6-34 1-5v-4l-7-11-7-12h-2l-1 2v3l-3 19-4 19-2 2-1 2h-86l-3-1-2-2-1-3 3-19 4-19 4-23 4-23 1-2 1-2 3-1 2-1h50v-2l-8-13-9-13-11-17-10-17-8-12-7-12-4-5-3-5-3-6-4-6-4-5-3-6-7-11-7-10-4-7-4-6-4-7-5-7-4-8-4-8-10-18-10-17-2-4-1-4v-7l2-5 3-5 2-4 3-3 4-2 4-2 7-1 7-1 50-6 49-7 31-4 31-4 20-2 20-2 13-1 13-1h26l5 1 4 2h3l2 1 6-9 7-9 4-4 4-3 4-1 3-1h10l14 7 15 7h1l8 5 9 5 5 6 6 5 10 15 10 15 5 7 4 7 4 5 4 6 6 10 6 9 7 11 7 11 4 7 4 7 6 9 5 9 10 16 10 16 3-3 2-2 3-6 2-5 6-10 6-10v-1l6-10 5-9 7-12 7-12 12-22 12-21 5-9 6-9 3-6 3-5 10-19 11-18 7-13 7-12 1-2 2-1 3-7 4-6 9-17 10-17 10-17 9-16 4-7 4-7 2-3 3-4 6-3 5-2h11l5 1 4 2 5 1 5 1 4 4 5 3 2 6 3 5v17l-1 8v9l1 1 5-3 5-2h12l10 5 10 5 4 3 5 4 2 4 3 5 1 5v6l-1 4-1 4-5 10-5 11-2 5-2 5 9-8 9-8 11-8 11-8 15-7 15-8 9-3 9-3 20-4 19-4 15-2 15-3 20-2 19-2 18-1 17-2 34-4 33-4h11l4 2 3 1 5 5 5 4 2 5 1 5v6l-1 6-6 14-6 14-3 5-2 6-3 3-2 3-11 17-10 18-5 7-5 8-6 9-5 10-10 15-9 16-6 8-5 9-9 15-9 15-4 5-3 6-3 4-2 5-8 13-8 13-14 23-14 23-8 12-7 12-10 16-9 16-5 7-4 7-4 6-4 7-11 18-11 18-1 5-1 5-6 32-5 32-7 36-6 37-8 46-8 46-6 31-5 32 2 5 3 4h3l45-43 44-43 9-8 9-9v-1l-1-2-9-35-8-34-14-57-14-57-1-6v-5l1-3 1-4 3-3 4-3 4-1 3-1h131l4 1 4 2 4 3 4 4 1 5 2 6 8 36 9 36 7 30 8 30 8 35 9 36 5 20 5 20 10 41 10 41 7 31 8 32v5l-1 5-2 3-2 3-4 2-5 3h-133l-4-2-4-2-3-4-3-4-4-26-4-25-3-17-2-17-1-2v-2l-4 3-3 4-37 39-38 39v1l-1 2 6 10 7 10 3 5 3 5 5 9 6 8 8 13 9 14 9 14 9 15 3 5 4 6 12 19 12 20 6 9 6 9 15 25 16 25 5 8 6 8 11 18 11 18 5 8 6 8 9 14 9 15 5 7 4 7 12 17 11 18 8 16 8 17 1 6v7l-2 4-2 5-3 3-3 4-5 2-5 2-41 6-42 5-14 1-15 1h-8l-8-1-6-2-6-2-6-3-6-2-7-5-7-4-5-6-6-5v3l1 4 2 4v10l-3 6-3 6-4 3-4 3-4 1-5 1-18 3-19 2-15 2-16 3-15 1-16 1h-12l-12-1-5-2-5-2-8-5-7-4-9-10-10-9-5-8-5-8-9-17-9-17-6-13-7-12-1-1h-1l-1 2-1 3-3 4-4 3-9 5-10 4-5 2-6 1h-9l-4-1-4-2-4-2-3-3-20-30-21-30-4-7-5-7-9-13-8-12-8-12-8-11-6-10-6-9h-2l-5 8-4 9-4 6-4 6-4 7-5 8-11 18-11 19-6 10-6 10-10 16-9 17-5 9-4 9-7 13-6 13-7 14-7 14-7 12-7 12-8 10-7 10-11 10-11 11-6 4-7 5-9 5-10 5-10 3-10 4-12 2-12 3-9 1-9 1-24 1-25 1-16 2-17 1-15 2-16 2-18 3-19 3-18 3-19 2-24 3-25 3-6-1-5-1-5-4-5-4-2-5-2-5v-13l11-22 11-21 18-36 18-36h-2l-5 6-5 6-3 4-4 5-4 5-4 5-5 6-6 7-5 7-6 7-6 7-6 7-5 7-6 6-6 8-6 7-7 9-8 9-6 8-6 7-7 9-8 10-11 13-10 13-6 7-7 7-2 4-3 3-6 7-6 8-3 4-4 4-7 9-8 9-3 5-4 4-7 9-8 9-3 4-3 4-5 3-4 2zm398-613h22v-1l1-1-4-4-4-4h-19l-19 1v8l1 1zm37 0h4l1-20v-20h-5l-5 1v38l1 1zm15 0h4l1-13v-15l1-2h9v28l1 1 1 1h7l1-13v-15l1-2h5l4 1 1 14v15h8l1-1 1-1v-33l-3-2-3-3h-22l-23 1v38l1 1zm57 0h4v-2l1-2v-5l8-1h8l5 5 6 5h10v-1l1-1-3-3-3-3 4-4 4-3v-20l-3-2-2-3h-45v39h1v1zm19-20h-13v-1h-1v-9h15l14 1 1 3v3l-1 2-1 1zm36 20h4l1-5v-4h29l1 4v5h9l1-18v-18l-2-2-3-2h-22l-23 1v38l1 1zm19-20h-13v-1h-1v-9h15l14 1 1 3v4l-1 1-2 1zm59 20h22v-2l1-3-1-2v-3h-40v-19l15-1h15v2l1 3v5h7l1-1 2-1v-12l-3-3-2-3h-23l-23 1v33l3 3 2 3zm33 0h4v-1l1-2v-34l-1-1v-2h-9l-1 2v36l1 1 1 1zm15 0h4v-1l1-2v-27h15l14 1 1 14v15h9l1-18v-17l-3-2-2-3h-45l-1 2v36l1 1 1 1zm78 0h22v-24h-34v9h12l12 1v4h-29v-20h37l1-1h2v-5l-2-2-3-2h-22l-23 1v34l2 3 3 2zm73 0h4l1-15v-14l8-1h10l2-1v-4l-1-4-9-1h-10l-5 5-5 4v30h1v1zm58 0h22l1-2 1-3-1-2-1-3h-39v-4l17-1h17v-9l-17-1h-17v-4l20-1h19l1-2 1-3-1-2v-3h-25l-25 1v33l3 3 2 3zm33 0h4l1-4v-3l1-2 1-1h28v2l1 3v5h8l1-1 1-1v-33l-3-2-3-3h-22l-23 1v38l1 1zm20-20h-13l-1-2-1-3v-2l1-3h15l14 1 1 3v3l-1 2-1 1zm36 20h4v-1l1-2v-27h9v2l1 3v25h9l1-15v-14h9l1 14v15h9l1-17v-18l-2-2-2-3h-46v39h1v1zm-562-7h1v-3l1-4-1-3v-3l-2-3-2-2h-36l-4-4-4-4h-2v13l3 3 3 2h34l4 4 4 4zm-18-23h18l1-2 1-3v-2l-1-3h-45v3l4 3 4 4zm415 0h5l4-4 5-4-1-1-1-1h-9l-10 1v7l1 1 1 1zM674 999h10l1-2 1-1 3-22 4-21 5-30 6-30 4-24 4-24 1-7 1-7-7-11-7-12h-2v2l-1 2-4 21-3 22-4 21-4 22-4 24-4 24-5 24-4 25v4zm-431 145h-44l-1-2-2-2v-4l5-31 6-30 3-18 3-17 6-36 7-36 5-29 5-29 4-23 4-23 5-28 5-27 5-32 6-32 6-35 6-34 1-4 1-3 2-1 2-1h201l3 2 2 1v6l-6 34-6 34-6 32-5 32-6 30-5 31-6 32-5 32-6 31-5 32-3 16-3 16-5 29-5 30-1 3-1 3-3 1-2 1H300l-1 1v1l-4 22-4 22-2 1-1 2zm83-145h10v-2l1-1 4-23 4-22 5-32 6-32 5-32 6-31 2-13 3-13 2-16 3-15v-4h-19l-1 1v1l-3 13-2 14-4 24-4 24-3 16-3 16-6 32-5 32-6 30-5 31v1l1 1zm159 96h-42l-2-1-2-1-1-2-1-2 4-23 4-22 3-21 4-20 6-36 7-36 5-29 5-29 5-31 6-31 5-28 5-27 1-9 1-8 2-3 2-2h88l2 2 2 2v2l-6 32-5 32-2 10-2 11-6 34-6 35-7 40-7 40-4 19-3 19-3 15-2 16-4 22-4 23-1 2-1 3-3 1-2 1zm1065-242h-4l-3-2-3-2-2-4-2-4-11-44-10-43v-5l1-4 3-5 2-5 31-32 30-31 7-4 6-3 68-1h67l4 1 4 1 2 3 2 2v6l-2 4-2 4-6 6-6 6-33 30-33 31-29 27-29 27-20 18-20 19-5 2-4 2z" fill="#D0E516"/><path d="M276 1777h-4l-3-1-4-2-8-5-9-6-2-3-3-2-2-5-1-4v-6l1-7 6-10 6-11 4-10 5-9 7-11 7-11 5-9 6-8 7-12 8-12 6-11 6-10 2-3 2-3 6-9 6-9 10-18 11-17 3-5 4-5 4-7 4-6 6-10 6-9 2-5 3-5 3-4 2-4 8-12 7-11 5-9 6-9 3-5 4-5 10-17 11-17 14-23 14-23 14-23 14-22 9-15 9-14 5-8 5-7 9-15 9-14 6-10 6-10 2-4 3-3 5-9 5-9 5-7 4-6 5-8 5-8 5-9 6-9 4-7 4-6 5-7 4-7 7-11 6-10 3-4 2-4v-1l-1-2h-75l-2-1-2-1v-7l6-37 7-37 5-31 6-30 4-24 4-23 7-43 8-42 7-42 8-42 3-21 4-21v-3l-6-8-5-9-3-4-2-4h-3v1l-1 1-4 21-3 22-2 1-2 2h-84l-2-2-2-1 2-14 3-14 4-26 5-26v-3l1-3 2-1 1-2h54v-1l1-1-4-6-3-6-8-12-8-12-4-7-5-7-4-7-4-7-4-5-3-5-12-20-12-19-6-8-5-8-1-3-2-3-10-16-10-15-3-6-3-5-10-17-9-17-3-6-3-5-1-5v-6l3-6 3-7 5-3 4-3 7-1 6-1 25-3 24-3 30-4 30-4 27-3 26-4 20-2 20-2 20-1 19-2h12l5 2 6 2 3 1h3l4-6 3-6 4-5 4-5 5-2 5-3h12l14 7 15 7h1l8 5 9 5 5 6 6 7 5 7 5 8 13 19 13 20 8 11 7 11 3 4 2 5 9 14 9 15 7 11 7 12 7 11 6 10h3l2-3 2-2 5-10 6-10 9-17 9-16 7-12 7-12 17-31 18-31 8-13 7-13 4-7 4-6 4-9 5-8 7-12 7-11 10-18 10-18 5-9 6-9 6-11 6-11 3-6 3-5 4-5 3-4 4-2 3-2h4l4-1 4 1 4 1 8 2 7 2 4 3 3 3 3 3 2 3 1 4 1 5-1 15-1 16 1 1h1l6-2 5-3h12l10 4 9 5 5 4 4 3 2 4 2 4 1 6v6l-3 8-4 9-5 11-5 12-1 2v2h2l11-11 11-11 12-8 11-8 11-5 10-5 8-3 7-3 7-2 6-2 17-3 17-4 15-2 15-3 14-1 14-2 11-1 11-1 21-2 20-2 25-3 25-3h12l3 2 4 1 3 3 4 3 2 5 2 4v11l-5 11-4 11-5 11-5 10-3 4-3 4-10 16-9 16-8 11-7 12-7 12-7 12-8 11-7 12-5 8-4 8-7 11-7 11-7 11-7 12-8 12-7 13-8 13-9 14-9 14-8 15-5 7-5 8-9 15-9 16-10 15-9 16-5 7-4 8-7 10-6 11v4l-4 19-3 19-3 18-3 19-4 21-4 22-5 31-6 32-5 29-5 29-5 28-5 28 1 3 1 2 3 4 2 3h3l14-13 13-13 30-28 29-28 11-11 11-10v-6l-7-28-7-27-8-35-9-34-8-31-7-31v-8l2-4 1-3 4-2 3-2 67-1h67l4 1 4 1 3 3 4 3 1 5 2 6 8 35 9 35 9 39 10 40 5 20 5 20 9 37 9 38 5 22 6 22 9 39 10 39v10l-2 4-2 3-5 2-5 2h-131l-4-2-4-2-2-3-2-3-2-8-1-7-5-32-4-31-1-6-2-6-1-1h-2l-17 18-17 19-6 6-6 6-17 18-18 19-1 2-1 2 6 9 5 9 15 23 14 23 15 23 14 23 4 7 4 6 5 7 4 7 5 8 5 8 10 15 9 15 7 10 6 11 4 6 4 6 8 12 8 13 8 12 7 12 8 13 8 12 7 11 7 11 6 9 6 10 13 19 12 19 8 16 8 17v12l-2 4-2 4-3 3-4 3-3 1-3 2-23 3-24 3-17 3-18 2-18 1-18 1-7-1-8-1-8-3-8-3-6-4-6-3-4-4-5-3-5-6-5-5h-2v2l2 7 3 7v10l-3 5-2 5-4 3-3 3-4 1-4 1-16 2-16 2-11 2-12 2-12 2-13 1-19 1h-19l-7-1-6-2-9-6-9-6-8-9-9-8-5-7-5-7-11-22-11-22-5-8-4-8-1-2-2-2-1 1-2 1v3l-4 5-5 4-8 4-8 4-5 2-5 1h-12l-4-2-5-2-3-3-3-3-24-36-24-36-15-22-15-22-8-12-7-11h-3l-1 2-2 2-4 7-4 8-4 6-4 6-8 13-8 14-4 5-3 6-11 18-11 18-4 7-4 7v1l-1 2-2 4-3 4-7 13-6 13-7 13-6 13-7 14-7 14-7 11-7 12-5 7-5 7-6 6-6 6-8 8-9 7-5 4-5 3-8 5-9 4-9 3-9 3-10 3-11 2-10 2-10 1-24 1-25 1-18 2-19 1-20 3-21 3-16 3-16 2-27 4-28 3-13 2-14 1-4-1-5-1-4-4-4-3-2-4-2-4v-13l7-16 8-15 22-45 23-44v-3h-2l-8 9-8 10-7 9-8 9-6 7-6 8-2 3-3 3-6 7-6 8-7 8-7 9-7 9-8 9-7 9-8 9-6 8-6 7-9 11-9 11-6 8-7 8-16 19-15 20-7 7-6 7-8 11-9 10-7 9-8 10-6 6-6 6-4 1-4 1zm0-25h2l11-13 10-12 5-7 6-7 7-8 6-9 18-21 17-21 5-6 5-7 6-6 5-6 7-9 7-9 6-7 6-8 8-9 8-10 9-10 8-10 5-7 6-6 10-12 9-12 7-9 7-8 7-9 7-8 3-4 3-3 6-8 6-8 22-26 22-26 5-7 5-6 7-9 8-9 5-7 5-6 8-9 7-9 8-10 7-9 5-6 5-7 7-7 6-8 1 1v1l-66 131-66 132-13 26-13 26v1h1l15-2 14-2 27-3 27-4 17-2 17-3 13-2 13-2 20-2 20-2 27-1 26-1 11-1 10-2 9-2 9-3 6-2 5-2 8-4 7-4 9-6 8-6 8-9 8-8 7-11 8-10 6-13 7-12v-1l11-24 12-23 6-11 6-11 8-14 8-14 6-9 5-9 2-4 2-3 6-10 7-10 2-5 3-5 3-5 3-4 3-6 4-5 7-13 8-13 5-8 5-7 4-7 4-8 1-1 2-1 22 34 23 34 14 20 14 21 7 10 7 10 14 21 14 21h5l8-3 7-4v-1l-5-14-4-14-8-23-7-22-18-55-18-55-7-20-7-20v-3l3 4 3 5 7 12 7 12 2 4 3 5 9 16 9 16 7 12 6 12 11 21 12 21 9 18 9 18 3 5 3 6 6 11 6 12 7 13 7 13 10 20 10 20 3 5 3 6 3 3 2 3 7 8 8 8 5 4 4 3 5 2 4 1h18l17-1 37-5 37-5 2-1 1-1-2-5-2-4-7-19-6-18-6-15-5-14-9-26-9-25-5-14-5-14-5-13-4-13-3-8-3-7v-4l2 3 3 3 10 14 11 15 10 16 11 17 3 5 4 5 2 4 2 4 9 13 9 14 9 14 10 14 8 12 9 13 5 5 4 5 8 4 7 4 6 3 7 2h21l10-1 11-1 16-2 16-3 20-2 20-3 1-1 1-1-7-14-7-14-7-11-8-11-6-10-6-9-9-13-8-13-7-11-6-10-8-13-9-13-8-12-8-13-6-9-6-10-7-11-7-11-4-6-4-7-9-15-9-14-7-10-6-10-8-14-9-13-15-24-15-24-11-17-10-16-2-4-2-3-3-5-3-4-135 1h-138l-4-1-1-2-1-3 5-28 5-27 4-24 4-23 6-34 6-34 4-26 5-26 2-13 3-13 3-21 4-21 5-28 5-27 5-29 5-29 1-7 2-7 2-2 1-1h177l1-2 2-1 5-8 5-8 11-19 11-18 8-13 8-12 4-8 4-7 3-5 4-5 11-19 11-18 6-10 6-9 8-14 8-13 3-5 3-4 13-22 14-22 3-6 3-5 6-10 7-10 7-12 7-12 11-17 10-17 3-5 4-5 4-8 5-8 7-10 6-10 4-8 4-7 3-8 3-8v-3h-4l-16 2-17 2-19 2-20 2-30 3-30 3-13 2-13 2-8 2-9 1-8 2-8 1-7 2-8 2-7 2-7 3-7 3-7 3-9 6-9 5-8 6-7 6-7 7-7 7-7 10-7 9-4 7-5 6-3 4-3 5-6 8-5 9-4 5-4 6-5 7-5 8-6 9-6 10-12 20-12 20-8 12-8 12-7 12-8 12h-2l-2-2-3-2 2-4 2-4 6-16 7-16 8-20 8-19 5-11 4-11 6-16 7-15v-1l7-16 6-15 10-23 9-22 6-14 7-15 2-5 2-6v-1l-1-2-6-3-5-3h-3l-16 11-16 10-5 3-5 3h-2v-10l1-9v-14l1-13 1-14 1-14-1-1v-1l-4-2-5-1h-1l-2-1-3 4-3 5-6 11-6 11-3 5-3 6-7 11-7 12-4 6-3 7-5 9-5 9-3 4-2 5-4 5-3 6-8 13-7 14-5 7-4 8-9 16-9 16-7 11-6 11-8 14-8 15-10 17-9 17-5 7-4 8-9 16-9 17-7 12-6 12h-1l-2-1-2-2-11-18-11-18-4-5-3-5-5-9-6-9-3-5-3-4-3-7-4-6-4-6-3-5-3-5-2-4-5-7-4-6-4-6-3-6-10-15-10-14-10-16-11-16-5-4-4-4-17-8-16-8-2 1-1 1-3 6-4 6v2l5 9 5 9 4 6 5 7 8 15 9 15 5 7 5 8 7 12 7 13 3 4 2 5 7 12 7 12 7 12 7 12 5 7 4 8 2 3 3 4 7 13 8 13 5 8 5 8v1l-3-2-2-2-4-5-5-5-8-10-9-9-8-11-9-10-7-10-8-10-10-15-11-15-4-6-4-5-7-10-6-9-6-9-6-8-11-17-12-16-2-5-3-4-9-9-10-10-5-2-6-3-17 1-17 1-22 2-22 2-24 3-24 3-9 2-10 1-52 7-52 6-1 1h-2v2l7 12 7 11 4 7 3 8 5 7 4 8 6 9 7 10 6 10 6 10 5 7 4 8 9 14 9 14 7 11 8 12 9 14 9 15 2 3 2 4 7 11 8 11 3 5 4 6 2 2 3 1 1 4 1 5 7 10 6 11h3l2-7 1-6 1-8 1-7 2-2 2-2h84l2 1 3 1v2l1 2-4 21-4 21 1 1 1 1h110l1 2 2 2-1 7-1 7-7 36-6 36-2 2-1 2h-57l-57 1v5l1 3 7 10 7 11h1l1-1 1-1v-2l2-2 1-2h87l2 1 1 2v6l-5 28-5 29-6 32-5 32-6 30-5 31-3 15-2 16-4 18-3 19-4 24-4 24-2 1-2 2h-94l-3 4-2 4-5 8-5 8-4 6-4 6-18 28-17 28-3 4-2 3-6 10-6 11-4 6-4 7-5 6-4 7-8 12-8 13-3 5-3 5-9 14-8 15-4 5-4 6-3 6-4 6-8 13-8 13-2 3-2 3-11 17-10 18-8 11-7 12-7 11-6 11-8 11-7 12-6 10-7 11-9 14-9 15-4 6-4 7-11 18-11 18-8 12-7 12-5 7-5 8-8 13-9 13-1 3-2 3-6 10-7 11-9 15-9 15-4 4-3 5-4 8-5 8-9 17-9 18v2l5 3 4 4zm459-232h-2l-6-4-7-3v-4l7-11 8-11 2-4 2-4 6-10 7-9 7-12 8-12 8-13 8-13 3-7 4-6 10-15 9-15 5-8 4-7 4-6 4-6 5-10 6-9 7-11 6-11 1-1h2l5 3 5 2v3l-2 4-3 4-9 16-9 17-5 8-5 8-10 17-9 17-7 12-7 12-5 7-4 7-5 9-6 10-16 26-16 27-4 6-4 7zm157-426H791l-2-1-2-2v-5l4-22 4-22 5-32 6-32 4-26 5-25 5-31 6-30 5-32 6-32 5-28 5-28 4-22 4-22 4-27 5-27 2-13 3-13 2-2 2-2h84l3 2 2 1v6l-1 5-3 17-3 16v2l1 1h110l1 2 2 1v6l-4 22-4 23-5 29-5 29-6 30-5 31-3 18-3 18-5 27-5 28-5 26-4 26-5 29-5 29-5 24-4 25-2 1-2 2zm15-94h10l1-2 1-2 6-34 6-34 5-32 6-32 6-34 6-34 3-16 3-16-1-1v-1h-21v1l-1 1-4 24-4 24-5 24-4 25-3 18-3 19-4 18-3 19-6 32-5 32h1v1zm-233 1h11l1-1 1-2 7-42 8-41 7-41 7-40v-3l-8-13-8-13h-2l-2 1-3 17-3 18-4 24-4 24-6 33-6 34-4 21-3 21v1l1 2zm466-1h10v-1l1-1 4-26 5-26 5-29 5-28-2-7-2-6-1-7-1-8 1-6 1-6 2-5 1-5 5-9 4-8 3-5 3-5 4-24 4-24-1-1v-1h-20l-1 2-1 3-5 28-5 29-5 25-4 26-5 29-5 30-6 30-5 30v5h1v1zm-896 142h-44l-1-1-1-2 4-27 5-26 7-43 8-42 7-43 8-43 4-26 5-25 6-34 6-33 8-46 8-46 3-17 3-16 1-1 1-2h203l1 2 1 1v5l-1 5-6 34-6 34-5 29-5 29-4 20-3 20-6 33-6 34-6 32-5 32-6 30-5 31-4 23-4 24v2l-2 2-2 2H299l-1 1-1 2-4 22-4 22-1 1v1zm82-141h9l2-1 1-1 3-18 4-19 3-18 3-18 4-25 5-24 6-38 7-38 3-17 3-16v-7h-22l-1 1-1 2-5 29-5 30-7 39-7 39-2 12-2 13-3 16-3 16-4 20-3 20 1 2 1 1zm158 92h-42l-2-2-1-2 7-40 7-39 8-46 8-45 8-46 8-46 6-34 6-34 2-11 2-10 1-1 1-1h86l1 1 2 2-4 24-4 24-7 40-7 40-7 36-6 36-2 12-2 13-5 27-5 27-4 21-3 21-3 15-3 15-2 2-1 1zm1065-242h-4l-3-3-3-3-11-45-11-45v-5l1-5 2-4 2-4 17-18 17-17 14-15 14-15 7-3 6-3h135l3 1 3 1 1 2 1 2v6l-3 4-3 5-8 8-9 8-38 35-38 36-35 32-35 33-6 4-6 5-3 2-3 1z" fill="#010001"/></svg>